<?xml version="1.0" encoding="utf-8"?>
<!-- Generator: Adobe Illustrator 25.2.1, SVG Export Plug-In . SVG Version: 6.00 Build 0)  -->
<svg version="1.1" id="Layer_1" xmlns="http://www.w3.org/2000/svg" xmlns:xlink="http://www.w3.org/1999/xlink" x="0px" y="0px"
	 viewBox="0 0 31.3 39.4" style="enable-background:new 0 0 31.3 39.4;" xml:space="preserve">
<style type="text/css">
	.st0{fill:#181425;}
	.st1{fill:#3A4466;}
	.st2{fill:#C0CBDC;}
	.st3{fill:#2CE8F5;}
</style>
<g>
	<g id="change1_1">
		<path class="st0" d="M29.4,17.8l1.7,4l-0.8,0.3l1,2.4l-0.8,0.3l0.7,1.6l-0.8,0.3l0.7,1.6l-0.8,0.3l0.3,0.8l-0.8,0.3l0.3,0.8
			L29.2,31l0.3,0.8l-0.8,0.3l0.3,0.8l-1.6,0.7l0.3,0.8l-1.6,0.7l0.3,0.8L25,36.6l0.3,0.8l-2.4,1l-2.4,1l-0.3-0.8l-1.6,0.7l-0.3-0.8
			l-1.6,0.7l-0.3-0.8l-1.6,0.7l-0.3-0.8l-0.8,0.3l-0.3-0.8L12.4,38l-0.3-0.8l-0.8,0.3L11,36.7l-0.8,0.3l-0.7-1.6l-0.8,0.3L8,34.2
			l-0.8,0.3l-0.7-1.6l-0.3-0.8l-0.8,0.3l-1-2.4l-0.7-1.6l0.8-0.3l-1.7-4l0.8-0.3l-1-2.4l0.8-0.3l-1-2.4l0.8-0.3L3,17.5l-0.7-1.6
			l-0.8,0.3L0.2,13L1,12.7l-0.3-0.8L0,10.3L0.8,10L0.1,8.4L0.9,8L0.6,7.2l0.8-0.3L1.1,6.1l1.6-0.7L2.3,4.6l2.4-1L4.4,2.9L6,2.2
			L5.7,1.4l1.6-0.7l1.6-0.7l0.3,0.8l1.6-0.7L11.2,1l2.4-1l0.3,0.8l1.6-0.7l0.3,0.8l0.8-0.3L17,1.4l0.8-0.3l0.7,1.6l0.8-0.3l1,2.4
			L21,4.4l1.3,3.2l-0.8,0.3l1,2.4l0.8-0.3l1,2.4l0.8-0.3l1,2.4l0.8-0.3l1.7,4L29.4,17.8z"/>
	</g>
	<g id="change2_1">
		<path class="st1" d="M27.8,18.5l-1.7-4l-0.8,0.3l-1-2.4l-0.8,0.3l0.3,0.8l-0.8,0.3l1,2.4l-0.8,0.3l0.3,0.8l-2.4,1l-0.3-0.8
			l-1.6,0.7l-0.3-0.8l-0.8,0.3L17.8,17L17,17.3l-0.3-0.8l-0.8,0.3l-1.7-4l-0.8,0.3l-0.3-0.8l-1.6,0.7l0.3,0.8L11,14.2l1.7,4
			l-0.8,0.3l0.3,0.8l-0.8,0.3l0.3,0.8l-0.8,0.3l0.3,0.8l-1.6,0.7l0.3,0.8l-2.4,1l-0.3-0.8l-0.8,0.3l-1-2.4l-0.8,0.3l-0.3-0.8l-1-2.4
			l-0.8,0.3l1,2.4l1,2.4l-0.8,0.3l-0.8,0.3l1.7,4l-0.8,0.3l0.7,1.6l0.8-0.3l1,2.4l0.3,0.8l0.8-0.3L8,34.2l0.8-0.3l0.7,1.6l0.7,1.6
			l0.8-0.3l0.8-0.3l0.3,0.8l0.3,0.8l0.8-0.3l0.8-0.3l0.3,0.8l0.3,0.8l1.6-0.7l0.3,0.8l1.6-0.7l1.6-0.7l0.3,0.8l4.8-2l-0.3-0.8
			l1.6-0.7l-0.3-0.8l1.6-0.7l-0.3-0.8l1.6-0.7l-0.3-0.8l0.8-0.3l-0.3-0.8l0.8-0.3l-0.3-0.8l0.8-0.3l-0.7-1.6l0.8-0.3l-0.7-1.6
			l0.8-0.3l-1-2.4l0.8-0.3l-1.7-4L27.8,18.5z M22.4,34.8l-0.8,0.3l-0.3-0.8L19.6,35l0.3,0.8l-0.8,0.3l-0.3-0.8L17.2,36l-0.3-0.8
			l1.6-0.7l0.3,0.8l0.8-0.3l-0.3-0.8l2.4-1L22.4,34.8z M25.6,33.5l-0.8,0.3L24.4,33l-0.8,0.3l0.3,0.8l-0.8,0.3l-0.7-1.6l1.6-0.7
			l0.3,0.8l0.8-0.3L25.6,33.5z M0.9,8l0.8-0.3L1.4,6.9L0.6,7.2L0.9,8z M1,12.7L0.2,13l1.3,3.2l0.8-0.3L1,12.7z M5.5,21.2l0.8-0.3
			l1,2.4l2.4-1l-0.3-0.8l1.6-0.7L10.6,20l0.8-0.3l-0.3-0.8l0.8-0.3l-1.7-4l0.8-0.3l-0.3-0.8l0.8-0.3l-0.3-0.8l-0.8,0.3L10,11.8
			l-0.8,0.3l-0.3-0.8l-0.8,0.3L5.7,6.1l0.8-0.3L6.2,4.9L7,4.6L6.7,3.8l0.8-0.3L7.1,2.7l-2.4,1l0.3,0.8l-2.4,1L1.1,6.1l0.3,0.8L3,6.3
			l0.3,0.8L2.5,7.4l1,2.4l-0.8,0.3l1.3,3.2l-0.8,0.3l0.7,1.6l-0.8,0.3l0.7,1.6L3,17.5l0.3,0.8L4.1,18L5.5,21.2z M9.9,2.5l0.3,0.8
			L11,2.9l0.3,0.8l0.8-0.3L14.5,9l-0.8,0.3l0.3,0.8l-0.8,0.3l0.3,0.8l-0.8,0.3l0.3,0.8l0.8-0.3l0.3,0.8l0.8-0.3l1.7,4l0.8-0.3
			l0.3,0.8l0.8-0.3l0.3,0.8l1.6-0.7l0.3,0.8l2.4-1l-1-2.4l0.8-0.3l-2.3-5.6l-0.8,0.3L19.3,7l-0.8,0.3l-1.3-3.2l-0.8,0.3l-1-2.4
			l-0.8,0.3l-0.7-1.6l-2.4,1L11.2,1L8.7,2l0.3,0.8L9.9,2.5z M8.4,1.2L6.8,1.9l0.3,0.8L8.7,2L8.4,1.2z M1.5,11.6l-0.8,0.3L1,12.7
			l0.8-0.3L1.5,11.6z"/>
	</g>
	<g id="change1_2">
		<path class="st0" d="M29.4,17.8l1.7,4l-0.8,0.3l1,2.4l-0.8,0.3l0.7,1.6l-0.8,0.3l0.7,1.6l-0.8,0.3l0.3,0.8l-0.8,0.3l0.3,0.8
			L29.2,31l0.3,0.8l-0.8,0.3l0.3,0.8l-1.6,0.7l-0.3-0.8L26.8,32l0.8-0.3l-0.3-0.8l0.8-0.3l-0.3-0.8L27,30.1l-0.3-0.8l0.8-0.3
			l-0.3-0.8l0.8-0.3L27.6,27l-0.8,0.3l-0.3-0.8l0.8-0.3l-0.3-0.8l0.8-0.3l-0.3-0.8l-0.8,0.3l-0.3-0.8l0.8-0.3l-0.3-0.8L25.9,23
			l-0.3-0.8l0.8-0.3l-0.3-0.8l0.8-0.3L26.5,20l-0.8,0.3l-0.3-0.8l0.8-0.3l-0.3-0.8l-0.8,0.3l-0.3-0.8l0.8-0.3l-0.3-0.8l-0.8,0.3
			l-0.3-0.8l-0.8,0.3l-1-2.4l0.8-0.3l-1.3-3.2l-1-2.4l-0.8,0.3L19.3,7l-0.8,0.3l-1.3-3.2l-0.8,0.3l-1-2.4l-0.8,0.3l-0.3-0.8
			l-0.3-0.8l1.6-0.7l0.3,0.8l0.8-0.3L17,1.4l0.8-0.3l0.7,1.6l0.8-0.3l1,2.4L21,4.4l1.3,3.2l-0.8,0.3l1,2.4l0.8-0.3l1,2.4l0.8-0.3
			l1,2.4l0.8-0.3l1.7,4L29.4,17.8z M7.6,1.5l0.8-0.3L8.7,2l0.8-0.3L11.2,1l-0.3-0.8L9.2,0.9L8.9,0.1L7.3,0.7L5.7,1.4L6,2.2L4.4,2.9
			l0.3,0.8L6.3,3l0.8-0.3L6.8,1.9L7.6,1.5z M2.7,5.5l2.4-1L4.7,3.7l-2.4,1L2.7,5.5z M0.9,8L0.1,8.4L0.8,10l0.8-0.3L0.9,8z M0.8,10
			L0,10.3l0.7,1.6l0.8-0.3L0.8,10z M3.1,15.6l-0.8,0.3L3,17.5l0.8-0.3L3.1,15.6z M3.7,23.8l0.8-0.3l-1-2.4l-0.8,0.3L3.7,23.8z
			 M5.2,29.7l-0.8,0.3l1,2.4l0.8-0.3L5.2,29.7z M6.6,32.9l0.7,1.6L8,34.2l-0.7-1.6L6.6,32.9z M8.7,35.8l0.8-0.3l-0.7-1.6L8,34.2
			L8.7,35.8z M11.3,37.5l0.8-0.3l-0.3-0.8L11,36.7L11.3,37.5z M13.6,38.5l0.8-0.3L14,37.3l-0.8,0.3L13.6,38.5z M18.2,38.4l0.3,0.8
			l1.6-0.7l-0.3-0.8L18.2,38.4z M20.2,38.6l0.3,0.8l2.4-1l2.4-1L25,36.6l-2.4,1L20.2,38.6z M9.3,10.2l0.8-0.3l-1.7-4L7.7,6.2
			L9.3,10.2z M11,14.2l0.8-0.3l-0.3-0.8l-0.8,0.3L11,14.2z M11.9,18.5l0.8-0.3l-1.7-4l-0.8,0.3L11.9,18.5z M11.4,19.7l0.8-0.3
			l-0.3-0.8l-0.8,0.3L11.4,19.7z M10.9,20.8l0.8-0.3l-0.3-0.8L10.6,20L10.9,20.8z M9.6,22.3l1.6-0.7l-0.3-0.8l-1.6,0.7L9.6,22.3z
			 M7.6,24.1l2.4-1l-0.3-0.8l-2.4,1L7.6,24.1z M5.5,21.2l1,2.4l0.8-0.3l-1-2.4L5.5,21.2z M3.3,18.3l1.3,3.2l0.8-0.3L4.1,18L3.3,18.3
			z M3.3,13.7L2.5,14l0.7,1.6l0.8-0.3L3.3,13.7z M2.7,10.1l-0.8,0.3l1.3,3.2l0.8-0.3L2.7,10.1z M2.5,7.4L1.7,7.7l1,2.4l0.8-0.3
			L2.5,7.4z M3,6.3L2.2,6.6l0.3,0.8l0.8-0.3L3,6.3z M7,4.6L6.2,4.9l0.3,0.8l0.8-0.3L7,4.6z M5.7,6.1l2.3,5.6l0.8-0.3L6.5,5.7
			L5.7,6.1z M8.9,11.3l0.3,0.8l0.8-0.3L9.7,11L8.9,11.3z M13.9,0.8L13.6,0l-2.4,1l0.3,0.8L13.9,0.8z M26.2,35.1l1.6-0.7l-0.3-0.8
			l-1.6,0.7L26.2,35.1z M25,36.6l1.6-0.7l-0.3-0.8l-1.6,0.7L25,36.6z M21.2,18.4l0.8-0.3l0.3,0.8l0.8-0.3l-0.3-0.8l0.8-0.3l-0.3-0.8
			l-2.4,1L21.2,18.4z M23.9,18.2l0.8-0.3l-0.3-0.8l-0.8,0.3L23.9,18.2z M24.3,19l-0.3-0.8l-0.8,0.3l0.3,0.8L24.3,19z M21.9,20
			l0.8-0.3l-0.3-0.8l-0.8,0.3L21.9,20z M24.6,19.8l0.8-0.3l-0.3-0.8L24.3,19L24.6,19.8z M23.8,20.2l-0.3-0.8l-0.8,0.3l0.3,0.8
			L23.8,20.2z M24.1,21l0.8-0.3l-0.3-0.8l-0.8,0.3L24.1,21z M22.2,20.8l0.3,0.8l0.8-0.3L23,20.5L22.2,20.8z M25.3,21.4l0.8-0.3
			l-0.3-0.8l-0.8,0.3L25.3,21.4z M23.3,21.3l0.3,0.8l0.8-0.3L24.1,21L23.3,21.3z M24.5,21.8l0.3,0.8l0.8-0.3l-0.3-0.8L24.5,21.8z
			 M23.7,22.1l-0.8,0.3l0.3,0.8l0.8-0.3L23.7,22.1z M24.3,23.7l0.8-0.3l-0.3-0.8L24,22.9L24.3,23.7z M25.4,24.2l0.8-0.3L25.9,23
			l-0.8,0.3L25.4,24.2z M24.3,23.7L23.5,24l0.3,0.8l0.8-0.3L24.3,23.7z M25,25.3l0.8-0.3l-0.3-0.8l-0.8,0.3L25,25.3z M26.1,25.8
			l0.8-0.3l-0.3-0.8L25.8,25L26.1,25.8z M24.2,25.6l0.3,0.8l0.8-0.3L25,25.3L24.2,25.6z M25.3,26.1l0.3,0.8l0.8-0.3l-0.3-0.8
			L25.3,26.1z M24.8,27.2l0.3,0.8l0.8-0.3l-0.3-0.8L24.8,27.2z M26.8,27.4L26,27.7l0.3,0.8l0.8-0.3L26.8,27.4z M25.5,28.8l0.3,0.8
			l0.8-0.3l-0.3-0.8L25.5,28.8z M26.2,30.4l0.3,0.8l0.8-0.3L27,30.1L26.2,30.4z M21.5,19.2l-0.3-0.8l-0.8,0.3l0.3,0.8L21.5,19.2z
			 M20.7,19.5l-0.8,0.3l0.3,0.8l0.8-0.3L20.7,19.5z M21.1,20.3l0.3,0.8l0.8-0.3L21.9,20L21.1,20.3z M19.6,19.1l-0.8,0.3l0.3,0.8
			l0.8-0.3L19.6,19.1z M17.7,18.9l0.3,0.8l0.8-0.3l-0.3-0.8L17.7,18.9z M16.5,18.5l0.3,0.8l0.8-0.3l-0.3-0.8L16.5,18.5z M15.4,18
			l0.3,0.8l0.8-0.3l-0.3-0.8L15.4,18z M12.9,14.3l0.3,0.8l0.8-0.3L13.7,14L12.9,14.3z M13.6,15.9l0.3,0.8l0.8-0.3l-0.3-0.8
			L13.6,15.9z M14.3,17.5l0.3,0.8l0.8-0.3l-0.3-0.8L14.3,17.5z M21.7,22l0.3,0.8l0.8-0.3l-0.3-0.8L21.7,22z M20.6,21.5l0.3,0.8
			l0.8-0.3l-0.3-0.8L20.6,21.5z M20.3,20.7L19.5,21l0.3,0.8l0.8-0.3L20.3,20.7z M18.3,20.5l0.3,0.8l0.8-0.3l-0.3-0.8L18.3,20.5z
			 M23.2,23.2l-0.8,0.3l0.3,0.8l0.8-0.3L23.2,23.2z M21.3,23.1l0.3,0.8l0.8-0.3l-0.3-0.8L21.3,23.1z M20.1,22.6l0.3,0.8l0.8-0.3
			l-0.3-0.8L20.1,22.6z M19,22.1l0.3,0.8l0.8-0.3l-0.3-0.8L19,22.1z M23.8,24.8L23,25.2l0.3,0.8l0.8-0.3L23.8,24.8z M21.9,24.7
			l0.3,0.8l0.8-0.3l-0.3-0.8L21.9,24.7z M23.7,26.8l0.3,0.8l0.8-0.3l-0.3-0.8L23.7,26.8z M22.6,26.3l0.3,0.8l0.8-0.3L23.4,26
			L22.6,26.3z"/>
	</g>
	<g id="change3_1">
		<path class="st2" d="M6.8,29.1l2,4.8L8,34.2l-1-2.4l-0.8,0.3l-1.7-4l0.8-0.3l-1.7-4l0.8-0.3l-1-2.4l0.8-0.3l0.3,0.8l0.8-0.3l1,2.4
			l0.8-0.3l0.7,1.6l-0.8,0.3l0.7,1.6L7,27.1l0.7,1.6L6.8,29.1z M3.3,13.7l-1.3-3.2l0.8-0.3l-1-2.4L0.9,8l0.7,1.6L0.8,10l1,2.4
			L1,12.7l1.3,3.2l0.8-0.3L2.5,14L3.3,13.7z M2.2,6.6L1.4,6.9l0.3,0.8l0.8-0.3L2.2,6.6z M8.9,11.3L9.7,11l0.3,0.8l3.2-1.3l-0.3-0.8
			l0.8-0.3l-2.3-5.6l-0.8,0.3l-0.3-0.8L7,4.6l0.3,0.8L6.5,5.7L8.9,11.3z M7.7,6.2l0.8-0.3L8.1,5.1l1.6-0.7l0.3,0.8l0.8-0.3l1.7,4
			l-0.8,0.3l0.3,0.8l-1.6,0.7l-0.3-0.8l-0.8,0.3L7.7,6.2z M11.7,9.2l-1.7-4L8.5,5.9l1.7,4L11.7,9.2z M8.8,33.9l0.7,1.6l0.8-0.3
			l-0.7-1.6L8.8,33.9z M10.3,35.1l0.7,1.6l0.8-0.3l-0.7-1.6L10.3,35.1z M11.8,36.4l0.3,0.8l0.8-0.3l-0.3-0.8L11.8,36.4z M12.9,36.9
			l0.3,0.8l0.8-0.3l-0.3-0.8L12.9,36.9z M14,37.3l0.3,0.8l1.6-0.7l-0.3-0.8L14,37.3z M16,37.5l0.3,0.8l1.6-0.7l-0.3-0.8L16,37.5z
			 M17.9,37.6l0.3,0.8l1.6-0.7l-0.3-0.8L17.9,37.6z M20.2,38.6l4.8-2l-0.3-0.8l-4.8,2L20.2,38.6z M3.9,15.3l-0.8,0.3l2.3,5.6
			l0.8-0.3L3.9,15.3z M8,22.9l0.8-0.3l-0.3-0.8l-0.8,0.3l-0.7-1.6l-0.8,0.3l1,2.4L8,22.9z M3.9,15.3l0.8-0.3l-0.7-1.6l-0.8,0.3
			L3.9,15.3z M4.1,13.3L4.9,13L3.5,9.8l-0.8,0.3L4.1,13.3z M4.3,9.5l-1-2.4L2.5,7.4l1,2.4L4.3,9.5z M3.8,5.9l1.6-0.7L5.1,4.5
			L3.5,5.1L2.7,5.5l0.7,1.6l0.8-0.3L3.8,5.9z M5.5,3.3L4.7,3.7l0.3,0.8l0.8-0.3L5.5,3.3z M12.7,18.2l0.8-0.3l-1.7-4L11,14.2
			L12.7,18.2z M12.6,13.5l-0.3-0.8l-0.8,0.3l0.3,0.8L12.6,13.5z M12.2,19.3L13,19l-0.3-0.8l-0.8,0.3L12.2,19.3z M11.7,20.5l0.8-0.3
			l-0.3-0.8l-0.8,0.3L11.7,20.5z M11.3,21.6l0.8-0.3l-0.3-0.8l-0.8,0.3L11.3,21.6z M10,23.1l1.6-0.7l-0.3-0.8l-1.6,0.7L10,23.1z
			 M12.7,11.6l0.3,0.8l0.8-0.3l-0.3-0.8L12.7,11.6z M13.9,12.1l0.3,0.8l0.8-0.3l-0.3-0.8L13.9,12.1z M15,12.5l1.7,4l0.8-0.3l-1.7-4
			L15,12.5z M17.5,16.2l0.3,0.8l0.8-0.3l-0.3-0.8L17.5,16.2z M18.6,16.7l0.3,0.8l1.6-0.7L20.2,16L18.6,16.7z M20.5,16.8l0.3,0.8
			l2.4-1l-0.3-0.8L20.5,16.8z"/>
	</g>
	<g id="change1_3">
		<path class="st0" d="M15.9,16.9l-0.8,0.3l-0.3-0.8l0.8-0.3l-0.3-0.8l-0.8,0.3l-0.3-0.8l0.8-0.3l-0.3-0.8L13.7,14l-0.3-0.8
			l-0.8,0.3l-0.3-0.8l-0.8,0.3l-0.3-0.8l-0.8,0.3L10,11.8l1.6-0.7l-0.3-0.8l-0.8,0.3l-0.3-0.8l0.8-0.3l0.8-0.3l-1.7-4L9.3,5.5
			L8.5,5.9L8.1,5.1l0.8-0.3L8.6,3.9L7,4.6L6.7,3.8l0.8-0.3L7.1,2.7l0.8-0.3L8.7,2l0.3,0.8l0.8-0.3l0.3,0.8L11,2.9l0.3,0.8l0.8-0.3
			L14.5,9l-0.8,0.3l0.3,0.8l-0.8,0.3l0.3,0.8l-0.8,0.3l0.3,0.8l0.8-0.3l0.3,0.8l0.8-0.3l1.7,4l0.8-0.3l0.3,0.8l0.8-0.3l0.3,0.8
			l1.6-0.7l0.3,0.8l-0.8,0.3l0.3,0.8l-0.8,0.3l-0.3-0.8l-0.8,0.3l-0.3-0.8l-0.8,0.3L17,17.3l-0.8,0.3L15.9,16.9z"/>
	</g>
	<g id="change4_1">
		<path class="st3" d="M23.3,32.6l-0.8,0.3l0.7,1.6l0.8-0.3l-0.3-0.8l0.8-0.3l-0.3-0.8L23.3,32.6z M16.9,35.2l0.3,0.8l1.6-0.7
			l-0.3-0.8L16.9,35.2z M20,35.8L19.6,35l-0.8,0.3l0.3,0.8L20,35.8z M21.6,35.2l0.8-0.3l-0.7-1.6l-0.8,0.3l-1.6,0.7l0.3,0.8l1.6-0.7
			L21.6,35.2z M25.6,33.5l-0.3-0.8L24.4,33l0.3,0.8L25.6,33.5z"/>
	</g>
</g>
</svg>
